<svg width="1154.977" xmlns="http://www.w3.org/2000/svg" height="895.886" viewBox="2084 -1130 1154.977 895.886" fill="none"><path d="M2088.527-1088.546c13.535 7.402 59.11 20.655 126.328-8.037 67.852-28.938 137.678 13.853 163.41 34.79l71.8-64.504c2.68-2.432 6.167-3.736 9.799-3.702l216.317 3.101c4.16.07 8.107 1.938 10.751 5.076L2845.3-934.373a14.274 14.274 0 0 0 7.05 4.547l169.575 47.973a14.54 14.54 0 0 1 8.038 5.886l71.765 108.387c8.954-.07 16.601-1.692 23.123-4.475 9.833-4.266 17.307-11.068 22.595-19.809 5.251-8.742 8.213-19.493 8.213-31.054-.036-15.439-5.218-32.182-16.849-47.303-11.597-15.088-29.644-28.657-56.008-37.292-35.636-11.667-61.542-24.638-80.507-37.68-40.782-4.475-49.311-39.583-49.417-67.957-.176-1.798-.282-3.454-.282-4.758 0-1.798.142-3.066.212-3.666l.282.036c.846-16.073 3.841-28.304 3.841-28.304s1.447 12.935 27.035 24.321c37.045 10.609 47.479 39.337 43.461 60.45 15.545 9.517 36.446 19.42 64.82 28.692 31.476 10.257 55.093 27.352 70.638 47.655 15.615 20.267 23.158 43.567 23.158 65.808 0 22.207-7.543 43.601-22.206 59.64-7.332 8.002-16.461 14.594-27.001 19.139-8.319 3.56-17.659 5.394-27.458 6.204l2.01 163.374c0 .882.106 1.761.282 2.643l26.224 131.158c.352 1.692.952 3.278 1.868 4.724l97.101 158.188a14.28 14.28 0 0 1 1.374 12.019c-1.304 4.018-4.372 7.226-8.283 8.811l-54.881 21.889a14.44 14.44 0 0 1-15.685-3.384l-115.367-120.3c-.106-.07-.176-.142-.246-.212l-126.432-126.471-303.801-167.075-45.469 62c-2.538 3.453-3.384 7.825-2.362 11.985 1.058 4.124 3.878 7.614 7.72 9.448l97.848 46.985a14.141 14.141 0 0 1 7.367 8.283c1.27 3.596.988 7.614-.739 11.067l-12.866 25.661c-3.347 6.698-11.315 9.729-18.259 6.873l-198.303-81.141c-6.874-2.783-10.47-10.397-8.284-17.482l44.59-144.903c1.34-4.476.494-9.342-2.362-13.008l-12.301-15.897a14.46 14.46 0 0 0-10.434-5.569 14.416 14.416 0 0 0-11.067 4.193l-62.424 62.179c-3.912 3.911-9.694 5.181-14.909 3.347l-71.13-25.166a14.294 14.294 0 0 1-9.411-11.385l-30.596-202.534c-60.59-3.244-64.328-55.902-64.328-55.902l83.536-17.871c-14.063-13.147-33.416-27.952-53.612-33.486-29.821-8.141-65.208.212-101.866-14.451-36.658-14.695-46.949-52.832-35.354-49.203ZM2995-577" style="background: none; fill: rgb(225, 255, 0);" class="fills" data-testid="sparesvg"/></svg>